<?xml version="1.0" standalone="no"?>
<!DOCTYPE svg PUBLIC "-//W3C//DTD SVG 20010904//EN"
 "http://www.w3.org/TR/2001/REC-SVG-20010904/DTD/svg10.dtd">
<svg version="1.0" xmlns="http://www.w3.org/2000/svg"
 width="534.000000pt" height="83.000000pt" viewBox="0 0 534.000000 83.000000"
 preserveAspectRatio="xMidYMid meet">

<g transform="translate(0.000000,83.000000) scale(0.100000,-0.100000)"
fill="#000000" stroke="none">
<path d="M4744 744 c-10 -16 -41 -59 -69 -96 -27 -37 -74 -100 -104 -140 -29
-40 -91 -125 -138 -188 -122 -165 -173 -237 -173 -244 0 -3 22 -6 48 -6 49 0
49 0 104 73 30 40 61 83 67 95 12 22 14 22 289 22 l278 0 70 -92 70 -93 52 -3
c29 -2 52 0 52 3 0 7 -10 20 -133 181 -34 44 -71 93 -82 109 -11 15 -29 39
-41 54 -11 14 -71 94 -134 176 -147 196 -134 183 -156 149z m126 -251 c52 -69
97 -130 98 -135 2 -4 -87 -8 -198 -8 l-201 0 12 22 c7 13 28 43 48 69 20 25
43 56 51 69 30 45 83 110 89 110 3 -1 49 -57 101 -127z"/>
<path d="M90 405 l0 -335 245 0 245 0 0 45 0 45 -205 0 -205 0 0 290 0 290
-40 0 -40 0 0 -335z"/>
<path d="M1100 405 l0 -335 300 0 300 0 0 45 0 45 -260 0 -260 0 0 100 0 100
260 0 260 0 0 45 0 45 -260 0 -260 0 0 105 0 105 260 0 260 0 0 40 0 40 -300
0 -300 0 0 -335z"/>
<path d="M2210 405 l0 -335 305 0 305 0 0 45 0 45 -260 0 -260 0 0 100 0 100
260 0 260 0 0 45 0 45 -260 0 -260 0 0 105 0 105 260 0 260 0 0 40 0 40 -305
0 -305 0 0 -335z"/>
<path d="M3340 405 l0 -335 245 0 245 0 0 45 0 45 -205 0 -205 0 0 290 0 290
-40 0 -40 0 0 -335z"/>
</g>
</svg>
